<svg width="44" height="44" viewBox="0 0 44 44" fill="none" xmlns="http://www.w3.org/2000/svg">
<g filter="url(#filter0_i_21_206)">
<rect width="44" height="44" rx="8" fill="#2C1E4F"/>
<path d="M15.1069 32.392C12.5683 32.392 10.7203 31.4213 9.56292 29.48C8.42426 27.52 8.12559 25 8.66692 21.92C9.20826 18.8587 10.3096 16.4413 11.9709 14.668C13.6323 12.8947 15.6856 12.008 18.1309 12.008C20.6696 12.008 22.5083 12.988 23.6469 14.948C24.7856 16.8893 25.0843 19.4 24.5429 22.48C24.0016 25.5413 22.9003 27.9587 21.2389 29.732C19.5963 31.5053 17.5523 32.392 15.1069 32.392ZM15.5829 28.024C17.8789 28.024 19.3723 26.0827 20.0629 22.2C20.7536 18.3173 19.9416 16.376 17.6269 16.376C15.3309 16.376 13.8376 18.3173 13.1469 22.2C12.4563 26.0827 13.2683 28.024 15.5829 28.024ZM32.0288 12.4H35.9488L32.5048 32H28.0248L30.6008 17.3L26.9888 18.252L26.5688 14.248L32.0288 12.4Z" fill="url(#paint0_linear_21_206)"/>
</g>
<defs>
<filter id="filter0_i_21_206" x="0" y="0" width="44" height="48" filterUnits="userSpaceOnUse" color-interpolation-filters="sRGB">
<feFlood flood-opacity="0" result="BackgroundImageFix"/>
<feBlend mode="normal" in="SourceGraphic" in2="BackgroundImageFix" result="shape"/>
<feColorMatrix in="SourceAlpha" type="matrix" values="0 0 0 0 0 0 0 0 0 0 0 0 0 0 0 0 0 0 127 0" result="hardAlpha"/>
<feMorphology radius="4" operator="erode" in="SourceAlpha" result="effect1_innerShadow_21_206"/>
<feOffset dy="4"/>
<feGaussianBlur stdDeviation="10"/>
<feComposite in2="hardAlpha" operator="arithmetic" k2="-1" k3="1"/>
<feColorMatrix type="matrix" values="0 0 0 0 1 0 0 0 0 1 0 0 0 0 1 0 0 0 0.2 0"/>
<feBlend mode="normal" in2="shape" result="effect1_innerShadow_21_206"/>
</filter>
<linearGradient id="paint0_linear_21_206" x1="21.5" y1="11.4483" x2="21.5" y2="33.1379" gradientUnits="userSpaceOnUse">
<stop stop-color="white" stop-opacity="0.4"/>
<stop offset="1" stop-color="white" stop-opacity="0"/>
</linearGradient>
</defs>
</svg>
