<svg width="44" height="44" viewBox="0 0 44 44" fill="none" xmlns="http://www.w3.org/2000/svg">
<g filter="url(#filter0_i_21_219)">
<rect width="44" height="44" rx="8" fill="#2C1E4F"/>
<path d="M13.2202 32.392C10.6815 32.392 8.83354 31.4213 7.6762 29.48C6.53754 27.52 6.23887 25 6.7802 21.92C7.32154 18.8587 8.42287 16.4413 10.0842 14.668C11.7455 12.8947 13.7989 12.008 16.2442 12.008C18.7829 12.008 20.6215 12.988 21.7602 14.948C22.8989 16.8893 23.1975 19.4 22.6562 22.48C22.1149 25.5413 21.0135 27.9587 19.3522 29.732C17.7095 31.5053 15.6655 32.392 13.2202 32.392ZM13.6962 28.024C15.9922 28.024 17.4855 26.0827 18.1762 22.2C18.8669 18.3173 18.0549 16.376 15.7402 16.376C13.4442 16.376 11.9509 18.3173 11.2602 22.2C10.5695 26.0827 11.3815 28.024 13.6962 28.024ZM38.1853 12.4L37.5693 16.04L33.4533 20.464C34.5733 20.9867 35.4226 21.7427 36.0013 22.732C36.5986 23.7213 36.7853 24.8507 36.5613 26.12C36.2066 28.1733 35.2919 29.732 33.8173 30.796C32.3613 31.86 30.6253 32.392 28.6093 32.392C27.0599 32.392 25.7159 32.0467 24.5773 31.356C23.4573 30.6467 22.6639 29.592 22.1973 28.192L26.3133 26.008C26.5186 26.68 26.8266 27.184 27.2373 27.52C27.6666 27.856 28.2826 28.024 29.0853 28.024C29.9626 28.024 30.6533 27.828 31.1573 27.436C31.6613 27.0253 31.9693 26.4933 32.0813 25.84C32.1933 25.1867 32.0719 24.664 31.7173 24.272C31.3626 23.8613 30.7466 23.656 29.8693 23.656H28.9173L27.6573 21.108L31.8293 16.6H24.8573L25.5853 12.4H38.1853Z" fill="url(#paint0_linear_21_219)"/>
</g>
<defs>
<filter id="filter0_i_21_219" x="0" y="0" width="44" height="48" filterUnits="userSpaceOnUse" color-interpolation-filters="sRGB">
<feFlood flood-opacity="0" result="BackgroundImageFix"/>
<feBlend mode="normal" in="SourceGraphic" in2="BackgroundImageFix" result="shape"/>
<feColorMatrix in="SourceAlpha" type="matrix" values="0 0 0 0 0 0 0 0 0 0 0 0 0 0 0 0 0 0 127 0" result="hardAlpha"/>
<feMorphology radius="4" operator="erode" in="SourceAlpha" result="effect1_innerShadow_21_219"/>
<feOffset dy="4"/>
<feGaussianBlur stdDeviation="10"/>
<feComposite in2="hardAlpha" operator="arithmetic" k2="-1" k3="1"/>
<feColorMatrix type="matrix" values="0 0 0 0 1 0 0 0 0 1 0 0 0 0 1 0 0 0 0.2 0"/>
<feBlend mode="normal" in2="shape" result="effect1_innerShadow_21_219"/>
</filter>
<linearGradient id="paint0_linear_21_219" x1="21.5" y1="11.4483" x2="21.5" y2="33.1379" gradientUnits="userSpaceOnUse">
<stop stop-color="white" stop-opacity="0.4"/>
<stop offset="1" stop-color="white" stop-opacity="0"/>
</linearGradient>
</defs>
</svg>
