<svg width="105" height="100" viewBox="0 0 105 100" fill="none" xmlns="http://www.w3.org/2000/svg">
<g filter="url(#filter0_i_6_74)">
<rect x="0.666656" width="103.667" height="100" rx="20" fill="#2C1E4F"/>
<rect x="10.3333" y="10" width="36" height="36" rx="12" fill="white"/>
<path d="M26 38C30.4183 38 34 34.4183 34 30C34 25.5817 30.4183 22 26 22C21.5817 22 18 25.5817 18 30C18 31.2355 18.2801 32.4056 18.7802 33.4502C18.9521 33.8093 19.0124 34.2161 18.9096 34.6006L18.5815 35.8267C18.323 36.793 19.207 37.677 20.1733 37.4185L21.3994 37.0904C21.7839 36.9876 22.1907 37.0479 22.5498 37.2198C23.5944 37.7199 24.7645 38 26 38Z" stroke="#312353" stroke-width="1.5"/>
<path d="M34 30.5018C34.0665 30.4741 34.1324 30.4453 34.1977 30.4155C34.5598 30.2501 34.9661 30.1882 35.3506 30.2911L35.8267 30.4185C36.793 30.677 37.677 29.793 37.4185 28.8267L37.2911 28.3506C37.1882 27.9661 37.2501 27.5598 37.4155 27.1977C37.7908 26.376 38 25.4624 38 24.5C38 20.9101 35.0899 18 31.5 18C28.7977 18 26.4806 19.649 25.5 21.9956" stroke="#312353" stroke-width="1.5"/>
<path d="M22.5183 30H22.5273M26.009 30H26.018M29.5 30H29.509" stroke="#312353" stroke-width="2" stroke-linecap="round" stroke-linejoin="round"/>
<path d="M17.494 69.18C16.63 69.18 15.89 68.992 15.274 68.616C14.658 68.236 14.184 67.708 13.852 67.032C13.524 66.356 13.36 65.572 13.36 64.68C13.36 63.788 13.524 63.004 13.852 62.328C14.184 61.652 14.658 61.126 15.274 60.75C15.89 60.37 16.63 60.18 17.494 60.18C18.358 60.18 19.098 60.37 19.714 60.75C20.334 61.126 20.808 61.652 21.136 62.328C21.468 63.004 21.634 63.788 21.634 64.68C21.634 65.572 21.468 66.356 21.136 67.032C20.808 67.708 20.334 68.236 19.714 68.616C19.098 68.992 18.358 69.18 17.494 69.18ZM17.494 67.818C18.074 67.822 18.556 67.694 18.94 67.434C19.328 67.174 19.618 66.808 19.81 66.336C20.006 65.864 20.104 65.312 20.104 64.68C20.104 64.048 20.006 63.5 19.81 63.036C19.618 62.568 19.328 62.204 18.94 61.944C18.556 61.684 18.074 61.55 17.494 61.542C16.914 61.538 16.432 61.666 16.048 61.926C15.664 62.186 15.374 62.552 15.178 63.024C14.986 63.496 14.89 64.048 14.89 64.68C14.89 65.312 14.986 65.862 15.178 66.33C15.37 66.794 15.658 67.156 16.042 67.416C16.43 67.676 16.914 67.81 17.494 67.818ZM25.5223 69.192C24.9063 69.184 24.3823 69.046 23.9503 68.778C23.5183 68.51 23.1803 68.132 22.9363 67.644C22.6923 67.156 22.5443 66.58 22.4923 65.916C22.4683 65.576 22.4663 65.196 22.4863 64.776C22.5063 64.356 22.5503 63.946 22.6183 63.546C22.6863 63.146 22.7803 62.806 22.9003 62.526C23.0243 62.246 23.1863 61.988 23.3863 61.752C23.5863 61.512 23.8023 61.312 24.0343 61.152C24.2983 60.968 24.5843 60.826 24.8923 60.726C25.2043 60.626 25.5303 60.55 25.8703 60.498C26.2103 60.442 26.5603 60.392 26.9203 60.348C27.2803 60.304 27.6363 60.248 27.9883 60.18L28.1203 61.458C27.8963 61.514 27.6363 61.558 27.3403 61.59C27.0483 61.618 26.7443 61.65 26.4283 61.686C26.1163 61.722 25.8183 61.774 25.5343 61.842C25.2503 61.91 25.0043 62.01 24.7963 62.142C24.5083 62.318 24.2883 62.57 24.1363 62.898C23.9843 63.226 23.8943 63.572 23.8663 63.936C24.1143 63.568 24.4223 63.31 24.7903 63.162C25.1623 63.01 25.5383 62.934 25.9183 62.934C26.4943 62.934 26.9883 63.07 27.4003 63.342C27.8163 63.614 28.1343 63.984 28.3543 64.452C28.5783 64.916 28.6903 65.434 28.6903 66.006C28.6903 66.646 28.5563 67.206 28.2883 67.686C28.0203 68.166 27.6483 68.538 27.1723 68.802C26.6963 69.066 26.1463 69.196 25.5223 69.192ZM25.5943 67.836C26.1143 67.836 26.5063 67.676 26.7703 67.356C27.0383 67.032 27.1723 66.602 27.1723 66.066C27.1723 65.518 27.0343 65.086 26.7583 64.77C26.4863 64.454 26.0983 64.296 25.5943 64.296C25.0823 64.296 24.6923 64.454 24.4243 64.77C24.1563 65.086 24.0223 65.518 24.0223 66.066C24.0223 66.626 24.1583 67.062 24.4303 67.374C24.7023 67.682 25.0903 67.836 25.5943 67.836ZM32.8259 69.18C32.1579 69.18 31.5879 69.032 31.1159 68.736C30.6439 68.436 30.2819 68.028 30.0299 67.512C29.7819 66.996 29.6559 66.412 29.6519 65.76C29.6559 65.096 29.7859 64.508 30.0419 63.996C30.3019 63.48 30.6699 63.076 31.1459 62.784C31.6219 62.488 32.1879 62.34 32.8439 62.34C33.5799 62.34 34.2019 62.526 34.7099 62.898C35.2219 63.266 35.5559 63.77 35.7119 64.41L34.2719 64.8C34.1599 64.452 33.9739 64.182 33.7139 63.99C33.4539 63.794 33.1579 63.696 32.8259 63.696C32.4499 63.696 32.1399 63.786 31.8959 63.966C31.6519 64.142 31.4719 64.386 31.3559 64.698C31.2399 65.01 31.1819 65.364 31.1819 65.76C31.1819 66.376 31.3199 66.874 31.5959 67.254C31.8719 67.634 32.2819 67.824 32.8259 67.824C33.2099 67.824 33.5119 67.736 33.7319 67.56C33.9559 67.384 34.1239 67.13 34.2359 66.798L35.7119 67.128C35.5119 67.788 35.1619 68.296 34.6619 68.652C34.1619 69.004 33.5499 69.18 32.8259 69.18ZM37.5318 71.88L38.7798 68.454L38.8038 69.462L35.9778 62.52H37.4838L39.4878 67.656H39.1038L41.0538 62.52H42.4998L38.8878 71.88H37.5318ZM42.6747 69L45.0507 65.76L42.8187 62.52H44.4027L46.5087 65.658V62.52H47.7927V65.658L49.8987 62.52H51.4767L49.2447 65.76L51.6207 69H49.9527L47.7927 65.862V69H46.5087V65.862L44.3427 69H42.6747ZM51.8678 70.44V67.866C52.2198 67.866 52.4698 67.746 52.6178 67.506C52.7658 67.266 52.8838 66.85 52.9718 66.258C53.0278 65.906 53.0738 65.534 53.1098 65.142C53.1458 64.75 53.1758 64.336 53.1998 63.9C53.2278 63.464 53.2518 63.004 53.2718 62.52H58.0958V67.866H58.7498V70.44H57.3818V69H53.2298V70.44H51.8678ZM53.8058 67.866H56.6558V63.654H54.5378C54.5258 63.894 54.5118 64.14 54.4958 64.392C54.4798 64.64 54.4618 64.888 54.4418 65.136C54.4218 65.384 54.3998 65.622 54.3758 65.85C54.3558 66.074 54.3318 66.282 54.3038 66.474C54.2598 66.81 54.2058 67.086 54.1418 67.302C54.0778 67.518 53.9658 67.706 53.8058 67.866ZM62.8993 69.18C62.2433 69.18 61.6673 69.038 61.1713 68.754C60.6753 68.47 60.2873 68.076 60.0073 67.572C59.7313 67.068 59.5933 66.488 59.5933 65.832C59.5933 65.124 59.7293 64.51 60.0013 63.99C60.2733 63.466 60.6513 63.06 61.1353 62.772C61.6193 62.484 62.1793 62.34 62.8153 62.34C63.4873 62.34 64.0573 62.498 64.5253 62.814C64.9973 63.126 65.3473 63.568 65.5753 64.14C65.8033 64.712 65.8893 65.386 65.8333 66.162H64.3993V65.634C64.3953 64.93 64.2713 64.416 64.0273 64.092C63.7833 63.768 63.3993 63.606 62.8753 63.606C62.2833 63.606 61.8433 63.79 61.5553 64.158C61.2673 64.522 61.1233 65.056 61.1233 65.76C61.1233 66.416 61.2673 66.924 61.5553 67.284C61.8433 67.644 62.2633 67.824 62.8153 67.824C63.1713 67.824 63.4773 67.746 63.7333 67.59C63.9933 67.43 64.1933 67.2 64.3333 66.9L65.7613 67.332C65.5133 67.916 65.1293 68.37 64.6093 68.694C64.0933 69.018 63.5233 69.18 62.8993 69.18ZM60.6673 66.162V65.07H65.1253V66.162H60.6673ZM67.16 69V62.52H68.606V65.076H71.516V62.52H72.962V69H71.516V66.432H68.606V69H67.16ZM80.2529 62.52V69H78.8669V64.77L75.7829 69H74.6249V62.52H76.0109V66.642L79.1069 62.52H80.2529ZM84.8837 69.18C84.2277 69.18 83.6517 69.038 83.1557 68.754C82.6597 68.47 82.2717 68.076 81.9917 67.572C81.7157 67.068 81.5777 66.488 81.5777 65.832C81.5777 65.124 81.7137 64.51 81.9857 63.99C82.2577 63.466 82.6357 63.06 83.1197 62.772C83.6037 62.484 84.1637 62.34 84.7997 62.34C85.4717 62.34 86.0417 62.498 86.5097 62.814C86.9817 63.126 87.3317 63.568 87.5597 64.14C87.7877 64.712 87.8737 65.386 87.8177 66.162H86.3837V65.634C86.3797 64.93 86.2557 64.416 86.0117 64.092C85.7677 63.768 85.3837 63.606 84.8597 63.606C84.2677 63.606 83.8277 63.79 83.5397 64.158C83.2517 64.522 83.1077 65.056 83.1077 65.76C83.1077 66.416 83.2517 66.924 83.5397 67.284C83.8277 67.644 84.2477 67.824 84.7997 67.824C85.1557 67.824 85.4617 67.746 85.7177 67.59C85.9777 67.43 86.1777 67.2 86.3177 66.9L87.7457 67.332C87.4977 67.916 87.1137 68.37 86.5937 68.694C86.0777 69.018 85.5077 69.18 84.8837 69.18ZM82.6517 66.162V65.07H87.1097V66.162H82.6517ZM13.828 85V78.52H19.456V85H18.01V79.876H15.274V85H13.828ZM24.2548 85.18C23.6228 85.18 23.0928 85.03 22.6648 84.73C22.2368 84.43 21.9148 84.022 21.6988 83.506C21.4828 82.986 21.3748 82.404 21.3748 81.76C21.3748 81.108 21.4828 80.524 21.6988 80.008C21.9148 79.492 22.2308 79.086 22.6468 78.79C23.0668 78.49 23.5848 78.34 24.2008 78.34C24.8128 78.34 25.3428 78.49 25.7908 78.79C26.2428 79.086 26.5928 79.492 26.8408 80.008C27.0888 80.52 27.2128 81.104 27.2128 81.76C27.2128 82.408 27.0908 82.99 26.8468 83.506C26.6028 84.022 26.2588 84.43 25.8148 84.73C25.3708 85.03 24.8508 85.18 24.2548 85.18ZM21.1288 87.88V78.52H22.4068V83.068H22.5868V87.88H21.1288ZM24.0328 83.884C24.4088 83.884 24.7188 83.79 24.9628 83.602C25.2068 83.414 25.3868 83.16 25.5028 82.84C25.6228 82.516 25.6828 82.156 25.6828 81.76C25.6828 81.368 25.6228 81.012 25.5028 80.692C25.3828 80.368 25.1968 80.112 24.9448 79.924C24.6928 79.732 24.3728 79.636 23.9848 79.636C23.6168 79.636 23.3168 79.726 23.0848 79.906C22.8528 80.082 22.6808 80.33 22.5688 80.65C22.4608 80.966 22.4068 81.336 22.4068 81.76C22.4068 82.18 22.4608 82.55 22.5688 82.87C22.6808 83.19 22.8548 83.44 23.0908 83.62C23.3308 83.796 23.6448 83.884 24.0328 83.884ZM31.3973 85.18C30.7493 85.18 30.1833 85.034 29.6993 84.742C29.2153 84.45 28.8393 84.048 28.5713 83.536C28.3073 83.02 28.1753 82.428 28.1753 81.76C28.1753 81.08 28.3113 80.484 28.5833 79.972C28.8553 79.46 29.2333 79.06 29.7173 78.772C30.2013 78.484 30.7613 78.34 31.3973 78.34C32.0493 78.34 32.6173 78.486 33.1013 78.778C33.5853 79.07 33.9613 79.474 34.2293 79.99C34.4973 80.502 34.6313 81.092 34.6313 81.76C34.6313 82.432 34.4953 83.026 34.2233 83.542C33.9553 84.054 33.5793 84.456 33.0953 84.748C32.6113 85.036 32.0453 85.18 31.3973 85.18ZM31.3973 83.824C31.9733 83.824 32.4013 83.632 32.6813 83.248C32.9613 82.864 33.1013 82.368 33.1013 81.76C33.1013 81.132 32.9593 80.632 32.6753 80.26C32.3913 79.884 31.9653 79.696 31.3973 79.696C31.0093 79.696 30.6893 79.784 30.4373 79.96C30.1893 80.132 30.0053 80.374 29.8853 80.686C29.7653 80.994 29.7053 81.352 29.7053 81.76C29.7053 82.388 29.8473 82.89 30.1313 83.266C30.4193 83.638 30.8413 83.824 31.3973 83.824ZM38.8993 85.18C38.2433 85.18 37.6673 85.038 37.1713 84.754C36.6753 84.47 36.2873 84.076 36.0073 83.572C35.7313 83.068 35.5933 82.488 35.5933 81.832C35.5933 81.124 35.7293 80.51 36.0013 79.99C36.2733 79.466 36.6513 79.06 37.1353 78.772C37.6193 78.484 38.1793 78.34 38.8153 78.34C39.4873 78.34 40.0573 78.498 40.5253 78.814C40.9973 79.126 41.3473 79.568 41.5753 80.14C41.8033 80.712 41.8893 81.386 41.8333 82.162H40.3993V81.634C40.3953 80.93 40.2713 80.416 40.0273 80.092C39.7833 79.768 39.3993 79.606 38.8753 79.606C38.2833 79.606 37.8433 79.79 37.5553 80.158C37.2673 80.522 37.1233 81.056 37.1233 81.76C37.1233 82.416 37.2673 82.924 37.5553 83.284C37.8433 83.644 38.2633 83.824 38.8153 83.824C39.1713 83.824 39.4773 83.746 39.7333 83.59C39.9933 83.43 40.1933 83.2 40.3333 82.9L41.7613 83.332C41.5133 83.916 41.1293 84.37 40.6093 84.694C40.0933 85.018 39.5233 85.18 38.8993 85.18ZM36.6673 82.162V81.07H41.1253V82.162H36.6673ZM43.16 85L43.172 78.52H44.636V81.64L47.006 78.52H48.812L46.298 81.76L49.028 85H47.114L44.636 81.88V85H43.16ZM51.2551 85V79.804H49.0891V78.52H54.8671V79.804H52.7011V85H51.2551ZM57.6637 85.18C57.1957 85.18 56.7997 85.092 56.4757 84.916C56.1517 84.736 55.9057 84.498 55.7377 84.202C55.5737 83.906 55.4917 83.58 55.4917 83.224C55.4917 82.912 55.5437 82.632 55.6477 82.384C55.7517 82.132 55.9117 81.916 56.1277 81.736C56.3437 81.552 56.6237 81.402 56.9677 81.286C57.2277 81.202 57.5317 81.126 57.8797 81.058C58.2317 80.99 58.6117 80.928 59.0197 80.872C59.4317 80.812 59.8617 80.748 60.3097 80.68L59.7937 80.974C59.7977 80.526 59.6977 80.196 59.4937 79.984C59.2897 79.772 58.9457 79.666 58.4617 79.666C58.1697 79.666 57.8877 79.734 57.6157 79.87C57.3437 80.006 57.1537 80.24 57.0457 80.572L55.7257 80.158C55.8857 79.61 56.1897 79.17 56.6377 78.838C57.0897 78.506 57.6977 78.34 58.4617 78.34C59.0377 78.34 59.5437 78.434 59.9797 78.622C60.4197 78.81 60.7457 79.118 60.9577 79.546C61.0737 79.774 61.1437 80.008 61.1677 80.248C61.1917 80.484 61.2037 80.742 61.2037 81.022V85H59.9377V83.596L60.1477 83.824C59.8557 84.292 59.5137 84.636 59.1217 84.856C58.7337 85.072 58.2477 85.18 57.6637 85.18ZM57.9517 84.028C58.2797 84.028 58.5597 83.97 58.7917 83.854C59.0237 83.738 59.2077 83.596 59.3437 83.428C59.4837 83.26 59.5777 83.102 59.6257 82.954C59.7017 82.77 59.7437 82.56 59.7517 82.324C59.7637 82.084 59.7697 81.89 59.7697 81.742L60.2137 81.874C59.7777 81.942 59.4037 82.002 59.0917 82.054C58.7797 82.106 58.5117 82.156 58.2877 82.204C58.0637 82.248 57.8657 82.298 57.6937 82.354C57.5257 82.414 57.3837 82.484 57.2677 82.564C57.1517 82.644 57.0617 82.736 56.9977 82.84C56.9377 82.944 56.9077 83.066 56.9077 83.206C56.9077 83.366 56.9477 83.508 57.0277 83.632C57.1077 83.752 57.2237 83.848 57.3757 83.92C57.5317 83.992 57.7237 84.028 57.9517 84.028Z" fill="white"/>
<path d="M63.4424 41.504C60.1784 41.504 57.8024 40.256 56.3144 37.76C54.8504 35.24 54.4664 32 55.1624 28.04C55.8584 24.104 57.2744 20.996 59.4104 18.716C61.5464 16.436 64.1864 15.296 67.3304 15.296C70.5944 15.296 72.9584 16.556 74.4224 19.076C75.8864 21.572 76.2704 24.8 75.5744 28.76C74.8784 32.696 73.4624 35.804 71.3264 38.084C69.2144 40.364 66.5864 41.504 63.4424 41.504ZM64.0544 35.888C67.0064 35.888 68.9264 33.392 69.8144 28.4C70.7024 23.408 69.6584 20.912 66.6824 20.912C63.7304 20.912 61.8104 23.408 60.9224 28.4C60.0344 33.392 61.0784 35.888 64.0544 35.888ZM74.6151 41L75.3351 36.824L85.3431 28.04C87.3591 26.264 88.4751 24.776 88.6911 23.576C88.8351 22.784 88.7151 22.148 88.3311 21.668C87.9471 21.164 87.3711 20.912 86.6031 20.912C85.0431 20.912 83.6751 21.86 82.4991 23.756L77.8911 20.804C79.0191 18.98 80.3991 17.612 82.0311 16.7C83.6871 15.764 85.4631 15.296 87.3591 15.296C89.6151 15.296 91.4751 16.088 92.9391 17.672C94.4031 19.232 94.9191 21.236 94.4871 23.684C94.2231 25.124 93.6951 26.432 92.9031 27.608C92.1111 28.76 90.9831 29.972 89.5191 31.244L84.6231 35.456H92.7231L91.7511 41H74.6151Z" fill="url(#paint0_linear_6_74)"/>
</g>
<defs>
<filter id="filter0_i_6_74" x="0.666656" y="0" width="103.667" height="104" filterUnits="userSpaceOnUse" color-interpolation-filters="sRGB">
<feFlood flood-opacity="0" result="BackgroundImageFix"/>
<feBlend mode="normal" in="SourceGraphic" in2="BackgroundImageFix" result="shape"/>
<feColorMatrix in="SourceAlpha" type="matrix" values="0 0 0 0 0 0 0 0 0 0 0 0 0 0 0 0 0 0 127 0" result="hardAlpha"/>
<feMorphology radius="4" operator="erode" in="SourceAlpha" result="effect1_innerShadow_6_74"/>
<feOffset dy="4"/>
<feGaussianBlur stdDeviation="10"/>
<feComposite in2="hardAlpha" operator="arithmetic" k2="-1" k3="1"/>
<feColorMatrix type="matrix" values="0 0 0 0 1 0 0 0 0 1 0 0 0 0 1 0 0 0 0.2 0"/>
<feBlend mode="normal" in2="shape" result="effect1_innerShadow_6_74"/>
</filter>
<linearGradient id="paint0_linear_6_74" x1="74" y1="15.3448" x2="74" y2="43.4138" gradientUnits="userSpaceOnUse">
<stop stop-color="white" stop-opacity="0.1"/>
<stop offset="1" stop-color="white" stop-opacity="0"/>
</linearGradient>
</defs>
</svg>
