<svg width="104" height="100" viewBox="0 0 104 100" fill="none" xmlns="http://www.w3.org/2000/svg">
<g filter="url(#filter0_i_6_73)">
<rect width="103.667" height="100" rx="20" fill="#2C1E4F"/>
<rect x="10" y="10" width="36" height="36" rx="12" fill="white"/>
<path d="M34.18 24.0393L34.6435 23.5759C35.4113 22.808 36.6563 22.808 37.4241 23.5759C38.192 24.3437 38.192 25.5887 37.4241 26.3565L36.9607 26.82M34.18 24.0393C34.18 24.0393 34.238 25.0241 35.1069 25.8931C35.9759 26.762 36.9607 26.82 36.9607 26.82M34.18 24.0393L29.9194 28.2999C29.6308 28.5885 29.4865 28.7328 29.3624 28.8919C29.2161 29.0796 29.0906 29.2827 28.9882 29.4975C28.9014 29.6797 28.8368 29.8732 28.7078 30.2604L28.2946 31.5L28.1609 31.901M36.9607 26.82L32.7001 31.0806C32.4115 31.3692 32.2672 31.5135 32.1081 31.6376C31.9204 31.7839 31.7173 31.9094 31.5025 32.0118C31.3203 32.0986 31.1268 32.1632 30.7396 32.2922L29.5 32.7054L29.099 32.8391M29.099 32.8391L28.6979 32.9728C28.5074 33.0363 28.2973 32.9867 28.1553 32.8447C28.0133 32.7027 27.9637 32.4926 28.0272 32.3021L28.1609 31.901M29.099 32.8391L28.1609 31.901" stroke="#2C1E4F" stroke-width="1.5"/>
<path d="M24 29H26.5" stroke="#2C1E4F" stroke-width="1.5" stroke-linecap="round"/>
<path d="M24 25H30.5" stroke="#2C1E4F" stroke-width="1.5" stroke-linecap="round"/>
<path d="M24 33H25.5" stroke="#2C1E4F" stroke-width="1.5" stroke-linecap="round"/>
<path d="M35.8284 19.1716C34.6569 18 32.7712 18 29 18H27C23.2288 18 21.3431 18 20.1716 19.1716C19 20.3431 19 22.2288 19 26V30C19 33.7712 19 35.6569 20.1716 36.8284C21.3431 38 23.2288 38 27 38H29C32.7712 38 34.6569 38 35.8284 36.8284C36.7715 35.8853 36.9554 34.4796 36.9913 32" stroke="#2C1E4F" stroke-width="1.5" stroke-linecap="round"/>
<path d="M12.84 69V60.36H16.266C16.85 60.36 17.328 60.478 17.7 60.714C18.076 60.946 18.354 61.244 18.534 61.608C18.718 61.972 18.81 62.348 18.81 62.736C18.81 63.212 18.696 63.616 18.468 63.948C18.244 64.28 17.938 64.504 17.55 64.62V64.32C18.094 64.444 18.506 64.702 18.786 65.094C19.07 65.486 19.212 65.932 19.212 66.432C19.212 66.944 19.114 67.392 18.918 67.776C18.722 68.16 18.43 68.46 18.042 68.676C17.658 68.892 17.182 69 16.614 69H12.84ZM14.304 67.638H16.434C16.686 67.638 16.912 67.588 17.112 67.488C17.312 67.384 17.468 67.24 17.58 67.056C17.696 66.868 17.754 66.646 17.754 66.39C17.754 66.158 17.704 65.95 17.604 65.766C17.504 65.582 17.358 65.436 17.166 65.328C16.974 65.216 16.744 65.16 16.476 65.16H14.304V67.638ZM14.304 63.81H16.248C16.456 63.81 16.642 63.77 16.806 63.69C16.97 63.61 17.1 63.492 17.196 63.336C17.292 63.18 17.34 62.988 17.34 62.76C17.34 62.46 17.244 62.21 17.052 62.01C16.86 61.81 16.592 61.71 16.248 61.71H14.304V63.81ZM20.4043 69L20.3983 62.52H21.8443V64.68H22.5703C22.7503 64.68 22.9523 64.684 23.1763 64.692C23.4043 64.7 23.5943 64.718 23.7463 64.746C24.1103 64.826 24.4203 64.954 24.6763 65.13C24.9363 65.306 25.1343 65.536 25.2703 65.82C25.4063 66.104 25.4743 66.446 25.4743 66.846C25.4743 67.418 25.3263 67.876 25.0303 68.22C24.7343 68.56 24.3203 68.792 23.7883 68.916C23.6323 68.952 23.4383 68.976 23.2063 68.988C22.9743 68.996 22.7683 69 22.5883 69H20.4043ZM21.8443 67.866H22.7143C22.8023 67.866 22.9003 67.862 23.0083 67.854C23.1163 67.846 23.2183 67.828 23.3143 67.8C23.4943 67.752 23.6543 67.644 23.7943 67.476C23.9343 67.304 24.0043 67.094 24.0043 66.846C24.0043 66.586 23.9343 66.372 23.7943 66.204C23.6543 66.036 23.4823 65.926 23.2783 65.874C23.1823 65.85 23.0843 65.834 22.9843 65.826C22.8883 65.818 22.7983 65.814 22.7143 65.814H21.8443V67.866ZM26.1523 69V62.52H27.5983V69H26.1523ZM31.9754 69.192C31.3594 69.184 30.8354 69.046 30.4034 68.778C29.9714 68.51 29.6334 68.132 29.3894 67.644C29.1454 67.156 28.9974 66.58 28.9454 65.916C28.9214 65.576 28.9194 65.196 28.9394 64.776C28.9594 64.356 29.0034 63.946 29.0714 63.546C29.1394 63.146 29.2334 62.806 29.3534 62.526C29.4774 62.246 29.6394 61.988 29.8394 61.752C30.0394 61.512 30.2554 61.312 30.4874 61.152C30.7514 60.968 31.0374 60.826 31.3454 60.726C31.6574 60.626 31.9834 60.55 32.3234 60.498C32.6634 60.442 33.0134 60.392 33.3734 60.348C33.7334 60.304 34.0894 60.248 34.4414 60.18L34.5734 61.458C34.3494 61.514 34.0894 61.558 33.7934 61.59C33.5014 61.618 33.1974 61.65 32.8814 61.686C32.5694 61.722 32.2714 61.774 31.9874 61.842C31.7034 61.91 31.4574 62.01 31.2494 62.142C30.9614 62.318 30.7414 62.57 30.5894 62.898C30.4374 63.226 30.3474 63.572 30.3194 63.936C30.5674 63.568 30.8754 63.31 31.2434 63.162C31.6154 63.01 31.9914 62.934 32.3714 62.934C32.9474 62.934 33.4414 63.07 33.8534 63.342C34.2694 63.614 34.5874 63.984 34.8074 64.452C35.0314 64.916 35.1434 65.434 35.1434 66.006C35.1434 66.646 35.0094 67.206 34.7414 67.686C34.4734 68.166 34.1014 68.538 33.6254 68.802C33.1494 69.066 32.5994 69.196 31.9754 69.192ZM32.0474 67.836C32.5674 67.836 32.9594 67.676 33.2234 67.356C33.4914 67.032 33.6254 66.602 33.6254 66.066C33.6254 65.518 33.4874 65.086 33.2114 64.77C32.9394 64.454 32.5514 64.296 32.0474 64.296C31.5354 64.296 31.1454 64.454 30.8774 64.77C30.6094 65.086 30.4754 65.518 30.4754 66.066C30.4754 66.626 30.6114 67.062 30.8834 67.374C31.1554 67.682 31.5434 67.836 32.0474 67.836ZM39.411 69.18C38.755 69.18 38.179 69.038 37.683 68.754C37.187 68.47 36.799 68.076 36.519 67.572C36.243 67.068 36.105 66.488 36.105 65.832C36.105 65.124 36.241 64.51 36.513 63.99C36.785 63.466 37.163 63.06 37.647 62.772C38.131 62.484 38.691 62.34 39.327 62.34C39.999 62.34 40.569 62.498 41.037 62.814C41.509 63.126 41.859 63.568 42.087 64.14C42.315 64.712 42.401 65.386 42.345 66.162H40.911V65.634C40.907 64.93 40.783 64.416 40.539 64.092C40.295 63.768 39.911 63.606 39.387 63.606C38.795 63.606 38.355 63.79 38.067 64.158C37.779 64.522 37.635 65.056 37.635 65.76C37.635 66.416 37.779 66.924 38.067 67.284C38.355 67.644 38.775 67.824 39.327 67.824C39.683 67.824 39.989 67.746 40.245 67.59C40.505 67.43 40.705 67.2 40.845 66.9L42.273 67.332C42.025 67.916 41.641 68.37 41.121 68.694C40.605 69.018 40.035 69.18 39.411 69.18ZM37.179 66.162V65.07H41.637V66.162H37.179ZM46.7978 69.18C46.1658 69.18 45.6358 69.03 45.2078 68.73C44.7798 68.43 44.4578 68.022 44.2418 67.506C44.0258 66.986 43.9178 66.404 43.9178 65.76C43.9178 65.108 44.0258 64.524 44.2418 64.008C44.4578 63.492 44.7738 63.086 45.1898 62.79C45.6098 62.49 46.1278 62.34 46.7438 62.34C47.3558 62.34 47.8858 62.49 48.3338 62.79C48.7858 63.086 49.1358 63.492 49.3838 64.008C49.6318 64.52 49.7558 65.104 49.7558 65.76C49.7558 66.408 49.6338 66.99 49.3898 67.506C49.1458 68.022 48.8018 68.43 48.3578 68.73C47.9138 69.03 47.3938 69.18 46.7978 69.18ZM43.6718 71.88V62.52H44.9498V67.068H45.1298V71.88H43.6718ZM46.5758 67.884C46.9518 67.884 47.2618 67.79 47.5058 67.602C47.7498 67.414 47.9298 67.16 48.0458 66.84C48.1658 66.516 48.2258 66.156 48.2258 65.76C48.2258 65.368 48.1658 65.012 48.0458 64.692C47.9258 64.368 47.7398 64.112 47.4878 63.924C47.2358 63.732 46.9158 63.636 46.5278 63.636C46.1598 63.636 45.8598 63.726 45.6278 63.906C45.3958 64.082 45.2238 64.33 45.1118 64.65C45.0038 64.966 44.9498 65.336 44.9498 65.76C44.9498 66.18 45.0038 66.55 45.1118 66.87C45.2238 67.19 45.3978 67.44 45.6338 67.62C45.8738 67.796 46.1878 67.884 46.5758 67.884ZM54.0243 69.18C53.3683 69.18 52.7923 69.038 52.2963 68.754C51.8003 68.47 51.4123 68.076 51.1323 67.572C50.8563 67.068 50.7183 66.488 50.7183 65.832C50.7183 65.124 50.8543 64.51 51.1263 63.99C51.3983 63.466 51.7763 63.06 52.2603 62.772C52.7443 62.484 53.3043 62.34 53.9403 62.34C54.6123 62.34 55.1823 62.498 55.6503 62.814C56.1223 63.126 56.4723 63.568 56.7003 64.14C56.9283 64.712 57.0143 65.386 56.9583 66.162H55.5243V65.634C55.5203 64.93 55.3963 64.416 55.1523 64.092C54.9083 63.768 54.5243 63.606 54.0003 63.606C53.4083 63.606 52.9683 63.79 52.6803 64.158C52.3923 64.522 52.2483 65.056 52.2483 65.76C52.2483 66.416 52.3923 66.924 52.6803 67.284C52.9683 67.644 53.3883 67.824 53.9403 67.824C54.2963 67.824 54.6023 67.746 54.8583 67.59C55.1183 67.43 55.3183 67.2 55.4583 66.9L56.8863 67.332C56.6383 67.916 56.2543 68.37 55.7343 68.694C55.2183 69.018 54.6483 69.18 54.0243 69.18ZM51.7923 66.162V65.07H56.2503V66.162H51.7923ZM59.7238 69V63.804H57.5578V62.52H63.3358V63.804H61.1698V69H59.7238ZM67.4188 69.18C66.7628 69.18 66.1868 69.038 65.6908 68.754C65.1948 68.47 64.8068 68.076 64.5268 67.572C64.2508 67.068 64.1128 66.488 64.1128 65.832C64.1128 65.124 64.2488 64.51 64.5208 63.99C64.7928 63.466 65.1708 63.06 65.6548 62.772C66.1388 62.484 66.6988 62.34 67.3348 62.34C68.0068 62.34 68.5768 62.498 69.0448 62.814C69.5168 63.126 69.8668 63.568 70.0948 64.14C70.3228 64.712 70.4088 65.386 70.3528 66.162H68.9188V65.634C68.9148 64.93 68.7908 64.416 68.5468 64.092C68.3028 63.768 67.9188 63.606 67.3948 63.606C66.8028 63.606 66.3628 63.79 66.0748 64.158C65.7868 64.522 65.6428 65.056 65.6428 65.76C65.6428 66.416 65.7868 66.924 66.0748 67.284C66.3628 67.644 66.7828 67.824 67.3348 67.824C67.6908 67.824 67.9968 67.746 68.2528 67.59C68.5128 67.43 68.7128 67.2 68.8528 66.9L70.2808 67.332C70.0328 67.916 69.6488 68.37 69.1288 68.694C68.6128 69.018 68.0428 69.18 67.4188 69.18ZM65.1868 66.162V65.07H69.6448V66.162H65.1868ZM12.12 85L14.496 81.76L12.264 78.52H13.848L15.954 81.658V78.52H17.238V81.658L19.344 78.52H20.922L18.69 81.76L21.066 85H19.398L17.238 81.862V85H15.954V81.862L13.788 85H12.12ZM24.7391 85.18C24.0831 85.18 23.5071 85.038 23.0111 84.754C22.5151 84.47 22.1271 84.076 21.8471 83.572C21.5711 83.068 21.4331 82.488 21.4331 81.832C21.4331 81.124 21.5691 80.51 21.8411 79.99C22.1131 79.466 22.4911 79.06 22.9751 78.772C23.4591 78.484 24.0191 78.34 24.6551 78.34C25.3271 78.34 25.8971 78.498 26.3651 78.814C26.8371 79.126 27.1871 79.568 27.4151 80.14C27.6431 80.712 27.7291 81.386 27.6731 82.162H26.2391V81.634C26.2351 80.93 26.1111 80.416 25.8671 80.092C25.6231 79.768 25.2391 79.606 24.7151 79.606C24.1231 79.606 23.6831 79.79 23.3951 80.158C23.1071 80.522 22.9631 81.056 22.9631 81.76C22.9631 82.416 23.1071 82.924 23.3951 83.284C23.6831 83.644 24.1031 83.824 24.6551 83.824C25.0111 83.824 25.3171 83.746 25.5731 83.59C25.8331 83.43 26.0331 83.2 26.1731 82.9L27.6011 83.332C27.3531 83.916 26.9691 84.37 26.4491 84.694C25.9331 85.018 25.3631 85.18 24.7391 85.18ZM22.5071 82.162V81.07H26.9651V82.162H22.5071ZM28.4119 85V83.788C28.6479 83.832 28.8299 83.828 28.9579 83.776C29.0859 83.72 29.1819 83.616 29.2459 83.464C29.3099 83.312 29.3659 83.11 29.4139 82.858C29.4779 82.502 29.5339 82.092 29.5819 81.628C29.6339 81.164 29.6779 80.668 29.7139 80.14C29.7539 79.612 29.7899 79.072 29.8219 78.52H34.5919V85H33.1519V79.876H31.0939C31.0739 80.136 31.0499 80.428 31.0219 80.752C30.9939 81.072 30.9639 81.396 30.9319 81.724C30.8999 82.052 30.8639 82.364 30.8239 82.66C30.7879 82.952 30.7499 83.202 30.7099 83.41C30.6179 83.878 30.4859 84.248 30.3139 84.52C30.1459 84.792 29.9099 84.966 29.6059 85.042C29.3019 85.122 28.9039 85.108 28.4119 85ZM38.0895 85.18C37.6215 85.18 37.2255 85.092 36.9015 84.916C36.5775 84.736 36.3315 84.498 36.1635 84.202C35.9995 83.906 35.9175 83.58 35.9175 83.224C35.9175 82.912 35.9695 82.632 36.0735 82.384C36.1775 82.132 36.3375 81.916 36.5535 81.736C36.7695 81.552 37.0495 81.402 37.3935 81.286C37.6535 81.202 37.9575 81.126 38.3055 81.058C38.6575 80.99 39.0375 80.928 39.4455 80.872C39.8575 80.812 40.2875 80.748 40.7355 80.68L40.2195 80.974C40.2235 80.526 40.1235 80.196 39.9195 79.984C39.7155 79.772 39.3715 79.666 38.8875 79.666C38.5955 79.666 38.3135 79.734 38.0415 79.87C37.7695 80.006 37.5795 80.24 37.4715 80.572L36.1515 80.158C36.3115 79.61 36.6155 79.17 37.0635 78.838C37.5155 78.506 38.1235 78.34 38.8875 78.34C39.4635 78.34 39.9695 78.434 40.4055 78.622C40.8455 78.81 41.1715 79.118 41.3835 79.546C41.4995 79.774 41.5695 80.008 41.5935 80.248C41.6175 80.484 41.6295 80.742 41.6295 81.022V85H40.3635V83.596L40.5735 83.824C40.2815 84.292 39.9395 84.636 39.5475 84.856C39.1595 85.072 38.6735 85.18 38.0895 85.18ZM38.3775 84.028C38.7055 84.028 38.9855 83.97 39.2175 83.854C39.4495 83.738 39.6335 83.596 39.7695 83.428C39.9095 83.26 40.0035 83.102 40.0515 82.954C40.1275 82.77 40.1695 82.56 40.1775 82.324C40.1895 82.084 40.1955 81.89 40.1955 81.742L40.6395 81.874C40.2035 81.942 39.8295 82.002 39.5175 82.054C39.2055 82.106 38.9375 82.156 38.7135 82.204C38.4895 82.248 38.2915 82.298 38.1195 82.354C37.9515 82.414 37.8095 82.484 37.6935 82.564C37.5775 82.644 37.4875 82.736 37.4235 82.84C37.3635 82.944 37.3335 83.066 37.3335 83.206C37.3335 83.366 37.3735 83.508 37.4535 83.632C37.5335 83.752 37.6495 83.848 37.8015 83.92C37.9575 83.992 38.1495 84.028 38.3775 84.028ZM46.1376 85.18C45.4816 85.18 44.9056 85.038 44.4096 84.754C43.9136 84.47 43.5256 84.076 43.2456 83.572C42.9696 83.068 42.8316 82.488 42.8316 81.832C42.8316 81.124 42.9676 80.51 43.2396 79.99C43.5116 79.466 43.8896 79.06 44.3736 78.772C44.8576 78.484 45.4176 78.34 46.0536 78.34C46.7256 78.34 47.2956 78.498 47.7636 78.814C48.2356 79.126 48.5856 79.568 48.8136 80.14C49.0416 80.712 49.1276 81.386 49.0716 82.162H47.6376V81.634C47.6336 80.93 47.5096 80.416 47.2656 80.092C47.0216 79.768 46.6376 79.606 46.1136 79.606C45.5216 79.606 45.0816 79.79 44.7936 80.158C44.5056 80.522 44.3616 81.056 44.3616 81.76C44.3616 82.416 44.5056 82.924 44.7936 83.284C45.0816 83.644 45.5016 83.824 46.0536 83.824C46.4096 83.824 46.7156 83.746 46.9716 83.59C47.2316 83.43 47.4316 83.2 47.5716 82.9L48.9996 83.332C48.7516 83.916 48.3676 84.37 47.8476 84.694C47.3316 85.018 46.7616 85.18 46.1376 85.18ZM43.9056 82.162V81.07H48.3636V82.162H43.9056ZM50.2225 85V78.52H51.4105L53.7325 82.996L56.0605 78.52H57.2425V85H55.8625V81.43L54.0205 85H53.4505L51.6085 81.43V85H50.2225ZM61.7801 85.18C61.1321 85.18 60.5661 85.034 60.0821 84.742C59.5981 84.45 59.2221 84.048 58.9541 83.536C58.6901 83.02 58.5581 82.428 58.5581 81.76C58.5581 81.08 58.6941 80.484 58.9661 79.972C59.2381 79.46 59.6161 79.06 60.1001 78.772C60.5841 78.484 61.1441 78.34 61.7801 78.34C62.4321 78.34 63.0001 78.486 63.4841 78.778C63.9681 79.07 64.3441 79.474 64.6121 79.99C64.8801 80.502 65.0141 81.092 65.0141 81.76C65.0141 82.432 64.8781 83.026 64.6061 83.542C64.3381 84.054 63.9621 84.456 63.4781 84.748C62.9941 85.036 62.4281 85.18 61.7801 85.18ZM61.7801 83.824C62.3561 83.824 62.7841 83.632 63.0641 83.248C63.3441 82.864 63.4841 82.368 63.4841 81.76C63.4841 81.132 63.3421 80.632 63.0581 80.26C62.7741 79.884 62.3481 79.696 61.7801 79.696C61.3921 79.696 61.0721 79.784 60.8201 79.96C60.5721 80.132 60.3881 80.374 60.2681 80.686C60.1481 80.994 60.0881 81.352 60.0881 81.76C60.0881 82.388 60.2301 82.89 60.5141 83.266C60.8021 83.638 61.2241 83.824 61.7801 83.824ZM69.2821 85.18C68.6261 85.18 68.0501 85.038 67.5541 84.754C67.0581 84.47 66.6701 84.076 66.3901 83.572C66.1141 83.068 65.9761 82.488 65.9761 81.832C65.9761 81.124 66.1121 80.51 66.3841 79.99C66.6561 79.466 67.0341 79.06 67.5181 78.772C68.0021 78.484 68.5621 78.34 69.1981 78.34C69.8701 78.34 70.4401 78.498 70.9081 78.814C71.3801 79.126 71.7301 79.568 71.9581 80.14C72.1861 80.712 72.2721 81.386 72.2161 82.162H70.7821V81.634C70.7781 80.93 70.6541 80.416 70.4101 80.092C70.1661 79.768 69.7821 79.606 69.2581 79.606C68.6661 79.606 68.2261 79.79 67.9381 80.158C67.6501 80.522 67.5061 81.056 67.5061 81.76C67.5061 82.416 67.6501 82.924 67.9381 83.284C68.2261 83.644 68.6461 83.824 69.1981 83.824C69.5541 83.824 69.8601 83.746 70.1161 83.59C70.3761 83.43 70.5761 83.2 70.7161 82.9L72.1441 83.332C71.8961 83.916 71.5121 84.37 70.9921 84.694C70.4761 85.018 69.9061 85.18 69.2821 85.18ZM67.0501 82.162V81.07H71.5081V82.162H67.0501Z" fill="white"/>
<path d="M65.044 41.504C61.78 41.504 59.404 40.256 57.916 37.76C56.452 35.24 56.068 32 56.764 28.04C57.46 24.104 58.876 20.996 61.012 18.716C63.148 16.436 65.788 15.296 68.932 15.296C72.196 15.296 74.56 16.556 76.024 19.076C77.488 21.572 77.872 24.8 77.176 28.76C76.48 32.696 75.064 35.804 72.928 38.084C70.816 40.364 68.188 41.504 65.044 41.504ZM65.656 35.888C68.608 35.888 70.528 33.392 71.416 28.4C72.304 23.408 71.26 20.912 68.284 20.912C65.332 20.912 63.412 23.408 62.524 28.4C61.636 33.392 62.68 35.888 65.656 35.888ZM86.8007 15.8H91.8407L87.4127 41H81.6527L84.9647 22.1L80.3207 23.324L79.7807 18.176L86.8007 15.8Z" fill="url(#paint0_linear_6_73)"/>
</g>
<defs>
<filter id="filter0_i_6_73" x="0" y="0" width="103.667" height="104" filterUnits="userSpaceOnUse" color-interpolation-filters="sRGB">
<feFlood flood-opacity="0" result="BackgroundImageFix"/>
<feBlend mode="normal" in="SourceGraphic" in2="BackgroundImageFix" result="shape"/>
<feColorMatrix in="SourceAlpha" type="matrix" values="0 0 0 0 0 0 0 0 0 0 0 0 0 0 0 0 0 0 127 0" result="hardAlpha"/>
<feMorphology radius="4" operator="erode" in="SourceAlpha" result="effect1_innerShadow_6_73"/>
<feOffset dy="4"/>
<feGaussianBlur stdDeviation="10"/>
<feComposite in2="hardAlpha" operator="arithmetic" k2="-1" k3="1"/>
<feColorMatrix type="matrix" values="0 0 0 0 1 0 0 0 0 1 0 0 0 0 1 0 0 0 0.2 0"/>
<feBlend mode="normal" in2="shape" result="effect1_innerShadow_6_73"/>
</filter>
<linearGradient id="paint0_linear_6_73" x1="73.5" y1="15.3448" x2="73.5" y2="43.4138" gradientUnits="userSpaceOnUse">
<stop stop-color="white" stop-opacity="0.1"/>
<stop offset="1" stop-color="white" stop-opacity="0"/>
</linearGradient>
</defs>
</svg>
