<svg width="104" height="100" viewBox="0 0 104 100" fill="none" xmlns="http://www.w3.org/2000/svg">
<g filter="url(#filter0_i_6_75)">
<rect x="0.333374" width="103.667" height="100" rx="20" fill="#2C1E4F"/>
<rect x="10.3333" y="10" width="36" height="36" rx="12" fill="white"/>
<path d="M20 26C20 22.2288 20 20.3431 21.1716 19.1716C22.3431 18 24.2288 18 28 18C31.7712 18 33.6569 18 34.8284 19.1716C36 20.3431 36 22.2288 36 26V30C36 33.7712 36 35.6569 34.8284 36.8284C33.6569 38 31.7712 38 28 38C24.2288 38 22.3431 38 21.1716 36.8284C20 35.6569 20 33.7712 20 30V26Z" stroke="#312353" stroke-width="1.5"/>
<path d="M31 35H25" stroke="#312353" stroke-width="1.5" stroke-linecap="round"/>
<path d="M17.494 69.18C16.63 69.18 15.89 68.992 15.274 68.616C14.658 68.236 14.184 67.708 13.852 67.032C13.524 66.356 13.36 65.572 13.36 64.68C13.36 63.788 13.524 63.004 13.852 62.328C14.184 61.652 14.658 61.126 15.274 60.75C15.89 60.37 16.63 60.18 17.494 60.18C18.49 60.18 19.32 60.43 19.984 60.93C20.648 61.426 21.114 62.096 21.382 62.94L19.924 63.342C19.756 62.778 19.47 62.338 19.066 62.022C18.662 61.702 18.138 61.542 17.494 61.542C16.914 61.542 16.43 61.672 16.042 61.932C15.658 62.192 15.368 62.558 15.172 63.03C14.98 63.498 14.882 64.048 14.878 64.68C14.878 65.312 14.974 65.864 15.166 66.336C15.362 66.804 15.654 67.168 16.042 67.428C16.43 67.688 16.914 67.818 17.494 67.818C18.138 67.818 18.662 67.658 19.066 67.338C19.47 67.018 19.756 66.578 19.924 66.018L21.382 66.42C21.114 67.264 20.648 67.936 19.984 68.436C19.32 68.932 18.49 69.18 17.494 69.18ZM24.3254 69V63.804H22.1594V62.52H27.9374V63.804H25.7714V69H24.3254ZM30.734 69.18C30.266 69.18 29.87 69.092 29.546 68.916C29.222 68.736 28.976 68.498 28.808 68.202C28.644 67.906 28.562 67.58 28.562 67.224C28.562 66.912 28.614 66.632 28.718 66.384C28.822 66.132 28.982 65.916 29.198 65.736C29.414 65.552 29.694 65.402 30.038 65.286C30.298 65.202 30.602 65.126 30.95 65.058C31.302 64.99 31.682 64.928 32.09 64.872C32.502 64.812 32.932 64.748 33.38 64.68L32.864 64.974C32.868 64.526 32.768 64.196 32.564 63.984C32.36 63.772 32.016 63.666 31.532 63.666C31.24 63.666 30.958 63.734 30.686 63.87C30.414 64.006 30.224 64.24 30.116 64.572L28.796 64.158C28.956 63.61 29.26 63.17 29.708 62.838C30.16 62.506 30.768 62.34 31.532 62.34C32.108 62.34 32.614 62.434 33.05 62.622C33.49 62.81 33.816 63.118 34.028 63.546C34.144 63.774 34.214 64.008 34.238 64.248C34.262 64.484 34.274 64.742 34.274 65.022V69H33.008V67.596L33.218 67.824C32.926 68.292 32.584 68.636 32.192 68.856C31.804 69.072 31.318 69.18 30.734 69.18ZM31.022 68.028C31.35 68.028 31.63 67.97 31.862 67.854C32.094 67.738 32.278 67.596 32.414 67.428C32.554 67.26 32.648 67.102 32.696 66.954C32.772 66.77 32.814 66.56 32.822 66.324C32.834 66.084 32.84 65.89 32.84 65.742L33.284 65.874C32.848 65.942 32.474 66.002 32.162 66.054C31.85 66.106 31.582 66.156 31.358 66.204C31.134 66.248 30.936 66.298 30.764 66.354C30.596 66.414 30.454 66.484 30.338 66.564C30.222 66.644 30.132 66.736 30.068 66.84C30.008 66.944 29.978 67.066 29.978 67.206C29.978 67.366 30.018 67.508 30.098 67.632C30.178 67.752 30.294 67.848 30.446 67.92C30.602 67.992 30.794 68.028 31.022 68.028ZM38.9501 69.18C38.3181 69.18 37.7881 69.03 37.3601 68.73C36.9321 68.43 36.6101 68.022 36.3941 67.506C36.1781 66.986 36.0701 66.404 36.0701 65.76C36.0701 65.108 36.1781 64.524 36.3941 64.008C36.6101 63.492 36.9261 63.086 37.3421 62.79C37.7621 62.49 38.2801 62.34 38.8961 62.34C39.5081 62.34 40.0381 62.49 40.4861 62.79C40.9381 63.086 41.2881 63.492 41.5361 64.008C41.7841 64.52 41.9081 65.104 41.9081 65.76C41.9081 66.408 41.7861 66.99 41.5421 67.506C41.2981 68.022 40.9541 68.43 40.5101 68.73C40.0661 69.03 39.5461 69.18 38.9501 69.18ZM35.8241 71.88V62.52H37.1021V67.068H37.2821V71.88H35.8241ZM38.7281 67.884C39.1041 67.884 39.4141 67.79 39.6581 67.602C39.9021 67.414 40.0821 67.16 40.1981 66.84C40.3181 66.516 40.3781 66.156 40.3781 65.76C40.3781 65.368 40.3181 65.012 40.1981 64.692C40.0781 64.368 39.8921 64.112 39.6401 63.924C39.3881 63.732 39.0681 63.636 38.6801 63.636C38.3121 63.636 38.0121 63.726 37.7801 63.906C37.5481 64.082 37.3761 64.33 37.2641 64.65C37.1561 64.966 37.1021 65.336 37.1021 65.76C37.1021 66.18 37.1561 66.55 37.2641 66.87C37.3761 67.19 37.5501 67.44 37.7861 67.62C38.0261 67.796 38.3401 67.884 38.7281 67.884ZM44.8566 69V63.804H42.6906V62.52H48.4686V63.804H46.3026V69H44.8566ZM55.122 69.18C54.49 69.18 53.96 69.03 53.532 68.73C53.104 68.43 52.782 68.022 52.566 67.506C52.35 66.986 52.242 66.404 52.242 65.76C52.242 65.108 52.35 64.524 52.566 64.008C52.782 63.492 53.098 63.086 53.514 62.79C53.934 62.49 54.452 62.34 55.068 62.34C55.68 62.34 56.21 62.49 56.658 62.79C57.11 63.086 57.46 63.492 57.708 64.008C57.956 64.52 58.08 65.104 58.08 65.76C58.08 66.408 57.958 66.99 57.714 67.506C57.47 68.022 57.126 68.43 56.682 68.73C56.238 69.03 55.718 69.18 55.122 69.18ZM51.996 71.88V62.52H53.274V67.068H53.454V71.88H51.996ZM54.9 67.884C55.276 67.884 55.586 67.79 55.83 67.602C56.074 67.414 56.254 67.16 56.37 66.84C56.49 66.516 56.55 66.156 56.55 65.76C56.55 65.368 56.49 65.012 56.37 64.692C56.25 64.368 56.064 64.112 55.812 63.924C55.56 63.732 55.24 63.636 54.852 63.636C54.484 63.636 54.184 63.726 53.952 63.906C53.72 64.082 53.548 64.33 53.436 64.65C53.328 64.966 53.274 65.336 53.274 65.76C53.274 66.18 53.328 66.55 53.436 66.87C53.548 67.19 53.722 67.44 53.958 67.62C54.198 67.796 54.512 67.884 54.9 67.884ZM61.2145 69.18C60.7465 69.18 60.3505 69.092 60.0265 68.916C59.7025 68.736 59.4565 68.498 59.2885 68.202C59.1245 67.906 59.0425 67.58 59.0425 67.224C59.0425 66.912 59.0945 66.632 59.1985 66.384C59.3025 66.132 59.4625 65.916 59.6785 65.736C59.8945 65.552 60.1745 65.402 60.5185 65.286C60.7785 65.202 61.0825 65.126 61.4305 65.058C61.7825 64.99 62.1625 64.928 62.5705 64.872C62.9825 64.812 63.4125 64.748 63.8605 64.68L63.3445 64.974C63.3485 64.526 63.2485 64.196 63.0445 63.984C62.8405 63.772 62.4965 63.666 62.0125 63.666C61.7205 63.666 61.4385 63.734 61.1665 63.87C60.8945 64.006 60.7045 64.24 60.5965 64.572L59.2765 64.158C59.4365 63.61 59.7405 63.17 60.1885 62.838C60.6405 62.506 61.2485 62.34 62.0125 62.34C62.5885 62.34 63.0945 62.434 63.5305 62.622C63.9705 62.81 64.2965 63.118 64.5085 63.546C64.6245 63.774 64.6945 64.008 64.7185 64.248C64.7425 64.484 64.7545 64.742 64.7545 65.022V69H63.4885V67.596L63.6985 67.824C63.4065 68.292 63.0645 68.636 62.6725 68.856C62.2845 69.072 61.7985 69.18 61.2145 69.18ZM61.5025 68.028C61.8305 68.028 62.1105 67.97 62.3425 67.854C62.5745 67.738 62.7585 67.596 62.8945 67.428C63.0345 67.26 63.1285 67.102 63.1765 66.954C63.2525 66.77 63.2945 66.56 63.3025 66.324C63.3145 66.084 63.3205 65.89 63.3205 65.742L63.7645 65.874C63.3285 65.942 62.9545 66.002 62.6425 66.054C62.3305 66.106 62.0625 66.156 61.8385 66.204C61.6145 66.248 61.4165 66.298 61.2445 66.354C61.0765 66.414 60.9345 66.484 60.8185 66.564C60.7025 66.644 60.6125 66.736 60.5485 66.84C60.4885 66.944 60.4585 67.066 60.4585 67.206C60.4585 67.366 60.4985 67.508 60.5785 67.632C60.6585 67.752 60.7745 67.848 60.9265 67.92C61.0825 67.992 61.2745 68.028 61.5025 68.028ZM69.0106 69.192C68.3946 69.184 67.8706 69.046 67.4386 68.778C67.0066 68.51 66.6686 68.132 66.4246 67.644C66.1806 67.156 66.0326 66.58 65.9806 65.916C65.9566 65.576 65.9546 65.196 65.9746 64.776C65.9946 64.356 66.0386 63.946 66.1066 63.546C66.1746 63.146 66.2686 62.806 66.3886 62.526C66.5126 62.246 66.6746 61.988 66.8746 61.752C67.0746 61.512 67.2906 61.312 67.5226 61.152C67.7866 60.968 68.0726 60.826 68.3806 60.726C68.6926 60.626 69.0186 60.55 69.3586 60.498C69.6986 60.442 70.0486 60.392 70.4086 60.348C70.7686 60.304 71.1246 60.248 71.4766 60.18L71.6086 61.458C71.3846 61.514 71.1246 61.558 70.8286 61.59C70.5366 61.618 70.2326 61.65 69.9166 61.686C69.6046 61.722 69.3066 61.774 69.0226 61.842C68.7386 61.91 68.4926 62.01 68.2846 62.142C67.9966 62.318 67.7766 62.57 67.6246 62.898C67.4726 63.226 67.3826 63.572 67.3546 63.936C67.6026 63.568 67.9106 63.31 68.2786 63.162C68.6506 63.01 69.0266 62.934 69.4066 62.934C69.9826 62.934 70.4766 63.07 70.8886 63.342C71.3046 63.614 71.6226 63.984 71.8426 64.452C72.0666 64.916 72.1786 65.434 72.1786 66.006C72.1786 66.646 72.0446 67.206 71.7766 67.686C71.5086 68.166 71.1366 68.538 70.6606 68.802C70.1846 69.066 69.6346 69.196 69.0106 69.192ZM69.0826 67.836C69.6026 67.836 69.9946 67.676 70.2586 67.356C70.5266 67.032 70.6606 66.602 70.6606 66.066C70.6606 65.518 70.5226 65.086 70.2466 64.77C69.9746 64.454 69.5866 64.296 69.0826 64.296C68.5706 64.296 68.1806 64.454 67.9126 64.77C67.6446 65.086 67.5106 65.518 67.5106 66.066C67.5106 66.626 67.6466 67.062 67.9186 67.374C68.1906 67.682 68.5786 67.836 69.0826 67.836ZM76.3622 69.18C75.7142 69.18 75.1482 69.034 74.6642 68.742C74.1802 68.45 73.8042 68.048 73.5362 67.536C73.2722 67.02 73.1402 66.428 73.1402 65.76C73.1402 65.08 73.2762 64.484 73.5482 63.972C73.8202 63.46 74.1982 63.06 74.6822 62.772C75.1662 62.484 75.7262 62.34 76.3622 62.34C77.0142 62.34 77.5822 62.486 78.0662 62.778C78.5502 63.07 78.9262 63.474 79.1942 63.99C79.4622 64.502 79.5962 65.092 79.5962 65.76C79.5962 66.432 79.4602 67.026 79.1882 67.542C78.9202 68.054 78.5442 68.456 78.0602 68.748C77.5762 69.036 77.0102 69.18 76.3622 69.18ZM76.3622 67.824C76.9382 67.824 77.3662 67.632 77.6462 67.248C77.9262 66.864 78.0662 66.368 78.0662 65.76C78.0662 65.132 77.9242 64.632 77.6402 64.26C77.3562 63.884 76.9302 63.696 76.3622 63.696C75.9742 63.696 75.6542 63.784 75.4022 63.96C75.1542 64.132 74.9702 64.374 74.8502 64.686C74.7302 64.994 74.6702 65.352 74.6702 65.76C74.6702 66.388 74.8122 66.89 75.0962 67.266C75.3842 67.638 75.8062 67.824 76.3622 67.824ZM82.4152 69V63.804H80.2492V62.52H86.0272V63.804H83.8612V69H82.4152ZM13.828 85V78.52H19.456V85H18.01V79.876H15.274V85H13.828ZM24.0028 85.18C23.3548 85.18 22.7888 85.034 22.3048 84.742C21.8208 84.45 21.4448 84.048 21.1768 83.536C20.9128 83.02 20.7808 82.428 20.7808 81.76C20.7808 81.08 20.9168 80.484 21.1888 79.972C21.4608 79.46 21.8388 79.06 22.3228 78.772C22.8068 78.484 23.3668 78.34 24.0028 78.34C24.6548 78.34 25.2228 78.486 25.7068 78.778C26.1908 79.07 26.5668 79.474 26.8348 79.99C27.1028 80.502 27.2368 81.092 27.2368 81.76C27.2368 82.432 27.1008 83.026 26.8288 83.542C26.5608 84.054 26.1848 84.456 25.7008 84.748C25.2168 85.036 24.6508 85.18 24.0028 85.18ZM24.0028 83.824C24.5788 83.824 25.0068 83.632 25.2868 83.248C25.5668 82.864 25.7068 82.368 25.7068 81.76C25.7068 81.132 25.5648 80.632 25.2808 80.26C24.9968 79.884 24.5708 79.696 24.0028 79.696C23.6148 79.696 23.2948 79.784 23.0428 79.96C22.7948 80.132 22.6108 80.374 22.4908 80.686C22.3708 80.994 22.3108 81.352 22.3108 81.76C22.3108 82.388 22.4528 82.89 22.7368 83.266C23.0248 83.638 23.4468 83.824 24.0028 83.824ZM30.9491 85V78.52H36.5771V85H35.1311V79.876H32.3951V85H30.9491ZM41.3759 85.18C40.7439 85.18 40.2139 85.03 39.7859 84.73C39.3579 84.43 39.0359 84.022 38.8199 83.506C38.6039 82.986 38.4959 82.404 38.4959 81.76C38.4959 81.108 38.6039 80.524 38.8199 80.008C39.0359 79.492 39.3519 79.086 39.7679 78.79C40.1879 78.49 40.7059 78.34 41.3219 78.34C41.9339 78.34 42.4639 78.49 42.9119 78.79C43.3639 79.086 43.7139 79.492 43.9619 80.008C44.2099 80.52 44.3339 81.104 44.3339 81.76C44.3339 82.408 44.2119 82.99 43.9679 83.506C43.7239 84.022 43.3799 84.43 42.9359 84.73C42.4919 85.03 41.9719 85.18 41.3759 85.18ZM38.2499 87.88V78.52H39.5279V83.068H39.7079V87.88H38.2499ZM41.1539 83.884C41.5299 83.884 41.8399 83.79 42.0839 83.602C42.3279 83.414 42.5079 83.16 42.6239 82.84C42.7439 82.516 42.8039 82.156 42.8039 81.76C42.8039 81.368 42.7439 81.012 42.6239 80.692C42.5039 80.368 42.3179 80.112 42.0659 79.924C41.8139 79.732 41.4939 79.636 41.1059 79.636C40.7379 79.636 40.4379 79.726 40.2059 79.906C39.9739 80.082 39.8019 80.33 39.6899 80.65C39.5819 80.966 39.5279 81.336 39.5279 81.76C39.5279 82.18 39.5819 82.55 39.6899 82.87C39.8019 83.19 39.9759 83.44 40.2119 83.62C40.4519 83.796 40.7659 83.884 41.1539 83.884ZM48.5184 85.18C47.8704 85.18 47.3044 85.034 46.8204 84.742C46.3364 84.45 45.9604 84.048 45.6924 83.536C45.4284 83.02 45.2964 82.428 45.2964 81.76C45.2964 81.08 45.4324 80.484 45.7044 79.972C45.9764 79.46 46.3544 79.06 46.8384 78.772C47.3224 78.484 47.8824 78.34 48.5184 78.34C49.1704 78.34 49.7384 78.486 50.2224 78.778C50.7064 79.07 51.0824 79.474 51.3504 79.99C51.6184 80.502 51.7524 81.092 51.7524 81.76C51.7524 82.432 51.6164 83.026 51.3444 83.542C51.0764 84.054 50.7004 84.456 50.2164 84.748C49.7324 85.036 49.1664 85.18 48.5184 85.18ZM48.5184 83.824C49.0944 83.824 49.5224 83.632 49.8024 83.248C50.0824 82.864 50.2224 82.368 50.2224 81.76C50.2224 81.132 50.0804 80.632 49.7964 80.26C49.5124 79.884 49.0864 79.696 48.5184 79.696C48.1304 79.696 47.8104 79.784 47.5584 79.96C47.3104 80.132 47.1264 80.374 47.0064 80.686C46.8864 80.994 46.8264 81.352 46.8264 81.76C46.8264 82.388 46.9684 82.89 47.2524 83.266C47.5404 83.638 47.9624 83.824 48.5184 83.824ZM56.0204 85.18C55.3644 85.18 54.7884 85.038 54.2924 84.754C53.7964 84.47 53.4084 84.076 53.1284 83.572C52.8524 83.068 52.7144 82.488 52.7144 81.832C52.7144 81.124 52.8504 80.51 53.1224 79.99C53.3944 79.466 53.7724 79.06 54.2564 78.772C54.7404 78.484 55.3004 78.34 55.9364 78.34C56.6084 78.34 57.1784 78.498 57.6464 78.814C58.1184 79.126 58.4684 79.568 58.6964 80.14C58.9244 80.712 59.0104 81.386 58.9544 82.162H57.5204V81.634C57.5164 80.93 57.3924 80.416 57.1484 80.092C56.9044 79.768 56.5204 79.606 55.9964 79.606C55.4044 79.606 54.9644 79.79 54.6764 80.158C54.3884 80.522 54.2444 81.056 54.2444 81.76C54.2444 82.416 54.3884 82.924 54.6764 83.284C54.9644 83.644 55.3844 83.824 55.9364 83.824C56.2924 83.824 56.5984 83.746 56.8544 83.59C57.1144 83.43 57.3144 83.2 57.4544 82.9L58.8824 83.332C58.6344 83.916 58.2504 84.37 57.7304 84.694C57.2144 85.018 56.6444 85.18 56.0204 85.18ZM53.7884 82.162V81.07H58.2464V82.162H53.7884ZM60.2811 85L60.2931 78.52H61.7571V81.64L64.1271 78.52H65.9331L63.4191 81.76L66.1491 85H64.2351L61.7571 81.88V85H60.2811ZM68.3762 85V79.804H66.2102V78.52H71.9882V79.804H69.8222V85H68.3762ZM73.7779 87.88L75.0259 84.454L75.0499 85.462L72.2239 78.52H73.7299L75.7339 83.656H75.3499L77.2999 78.52H78.7459L75.1339 87.88H73.7779Z" fill="white"/>
<path d="M62.3545 41.504C59.0905 41.504 56.7145 40.256 55.2265 37.76C53.7625 35.24 53.3785 32 54.0745 28.04C54.7705 24.104 56.1865 20.996 58.3225 18.716C60.4585 16.436 63.0985 15.296 66.2425 15.296C69.5065 15.296 71.8705 16.556 73.3345 19.076C74.7985 21.572 75.1825 24.8 74.4865 28.76C73.7905 32.696 72.3745 35.804 70.2385 38.084C68.1265 40.364 65.4985 41.504 62.3545 41.504ZM62.9665 35.888C65.9185 35.888 67.8385 33.392 68.7265 28.4C69.6145 23.408 68.5705 20.912 65.5945 20.912C62.6425 20.912 60.7225 23.408 59.8345 28.4C58.9465 33.392 59.9905 35.888 62.9665 35.888ZM94.4525 15.8L93.6605 20.48L88.3685 26.168C89.8085 26.84 90.9005 27.812 91.6445 29.084C92.4125 30.356 92.6525 31.808 92.3645 33.44C91.9085 36.08 90.7325 38.084 88.8365 39.452C86.9645 40.82 84.7325 41.504 82.1405 41.504C80.1485 41.504 78.4205 41.06 76.9565 40.172C75.5165 39.26 74.4965 37.904 73.8965 36.104L79.1885 33.296C79.4525 34.16 79.8485 34.808 80.3765 35.24C80.9285 35.672 81.7205 35.888 82.7525 35.888C83.8805 35.888 84.7685 35.636 85.4165 35.132C86.0645 34.604 86.4605 33.92 86.6045 33.08C86.7485 32.24 86.5925 31.568 86.1365 31.064C85.6805 30.536 84.8885 30.272 83.7605 30.272H82.5365L80.9165 26.996L86.2805 21.2H77.3165L78.2525 15.8H94.4525Z" fill="url(#paint0_linear_6_75)"/>
</g>
<defs>
<filter id="filter0_i_6_75" x="0.333374" y="0" width="103.667" height="104" filterUnits="userSpaceOnUse" color-interpolation-filters="sRGB">
<feFlood flood-opacity="0" result="BackgroundImageFix"/>
<feBlend mode="normal" in="SourceGraphic" in2="BackgroundImageFix" result="shape"/>
<feColorMatrix in="SourceAlpha" type="matrix" values="0 0 0 0 0 0 0 0 0 0 0 0 0 0 0 0 0 0 127 0" result="hardAlpha"/>
<feMorphology radius="4" operator="erode" in="SourceAlpha" result="effect1_innerShadow_6_75"/>
<feOffset dy="4"/>
<feGaussianBlur stdDeviation="10"/>
<feComposite in2="hardAlpha" operator="arithmetic" k2="-1" k3="1"/>
<feColorMatrix type="matrix" values="0 0 0 0 1 0 0 0 0 1 0 0 0 0 1 0 0 0 0.2 0"/>
<feBlend mode="normal" in2="shape" result="effect1_innerShadow_6_75"/>
</filter>
<linearGradient id="paint0_linear_6_75" x1="73" y1="15.3448" x2="73" y2="43.4138" gradientUnits="userSpaceOnUse">
<stop stop-color="white" stop-opacity="0.1"/>
<stop offset="1" stop-color="white" stop-opacity="0"/>
</linearGradient>
</defs>
</svg>
